<svg width="128" height="128" viewBox="0 0 128 128" fill="none" xmlns="http://www.w3.org/2000/svg">
<g filter="url(#filter0_i_10_69)">
<path d="M76.252 42.0455C75.2979 42.0677 74.2107 42.0831 72.9899 42.0889L71.0518 42.0979L72.6452 43.1992C74.0636 44.1798 75.194 45.1816 76.0474 46.2003L76.0558 46.2098C76.9311 47.2122 77.6361 48.1009 78.1752 48.8769C78.2658 49.0204 78.3529 49.1626 78.4376 49.3031L78.6696 50.0723H78.8789C79.159 50.586 79.3972 51.0775 79.5927 51.5481C79.6852 51.9423 79.8524 52.9249 80.0942 54.5343L80.096 54.5438L80.0978 54.5539C80.3896 56.1456 80.6955 58.0705 81.0162 60.3292L81.0174 60.3352L81.0186 60.3417C81.3896 62.5939 81.7564 65.027 82.1194 67.6398L82.38 69.5437C82.6338 71.4292 82.8671 73.2594 83.0789 75.0344L83.0801 75.0475C83.4065 77.3544 83.6521 79.4126 83.8172 81.2222L83.819 81.2389C84.0338 83.0388 84.1528 84.2492 84.181 84.8895C84.1698 85.6078 84.074 86.4206 83.8864 87.3297C83.7372 88.0528 83.4302 88.9133 82.9513 89.9164L82.9489 89.9206L82.9471 89.9248C82.5244 90.8449 81.9064 91.8272 81.083 92.8716L80.1712 94.0284L81.6352 93.8539C83.2461 93.6623 84.6553 93.52 85.8633 93.4271L85.8764 93.4265L85.8883 93.4247C87.094 93.2813 88.0943 93.1878 88.8915 93.1431L88.8957 93.1425C89.8066 93.0851 90.596 93.0174 91.262 92.9389C91.3654 92.9346 91.4693 92.9291 91.5739 92.9246L100.631 123L65.0961 95.144L29.5615 123L36.8728 98.7207C37.2701 99.5899 37.6845 100.494 38.1161 101.433L38.2682 101.765L38.6332 101.787L45.9706 102.24L46.0565 101.692C46.3891 99.5743 46.6943 97.4793 46.9719 95.4077C47.2528 93.2922 47.5145 91.4043 47.7567 89.7456L47.7579 89.7402C48.0267 87.771 48.234 85.9212 48.3805 84.1923C48.6742 81.9248 48.9871 79.4305 49.3191 76.7097C49.6511 73.9895 49.9751 71.3701 50.29 68.8519C50.6563 66.3323 50.9759 64.063 51.2489 62.0443L51.2483 62.0437C51.5746 59.9916 51.8731 58.5561 52.1381 57.7098L52.1392 57.7056C52.3289 57.0832 52.6649 56.4055 53.1632 55.6725C53.6128 55.0212 54.1992 54.274 54.926 53.4294C55.6272 52.6144 56.5626 51.7553 57.7407 50.8546L59.1583 49.7711L57.3722 49.7609C55.4349 49.7504 53.8035 49.7398 52.478 49.73C52.1871 49.7172 51.9062 49.7068 51.6353 49.6984L65.0961 5L76.252 42.0455ZM35.8405 72.2102C36.3633 74.0507 36.8399 75.7953 37.2681 77.4437L38.3475 81.2425C38.4395 80.5218 38.5405 79.7162 38.6469 78.8255C38.7961 77.5643 38.9516 76.215 39.1156 74.7778L43.1344 77.9283L36.8728 98.7207C35.7212 96.2016 34.7139 93.976 33.8511 92.0441L33.8451 92.0304C32.7412 89.3893 31.8271 87.2232 31.1031 85.533L31.0995 85.5259C30.2947 83.5722 29.6164 81.9348 29.0648 80.615L29.0594 80.6019L29.054 80.5876C28.6075 79.3493 27.9982 77.9135 27.2239 76.2792L27.2233 76.278C26.5764 74.903 25.7521 73.2053 24.7496 71.1856L24.7472 71.1808L24.7442 71.1755C24.0134 69.628 23.1601 67.903 22.1853 65.9997C21.8624 68.6425 21.6162 70.9586 21.4476 72.949L21.3433 74.6945C21.2501 76.3587 21.1904 77.7955 21.1638 79.0058L21.1632 79.6952C21.1688 81.2641 21.2131 82.5985 21.295 83.7C21.4432 84.9097 21.6789 86.2817 22.0022 87.8173L22.4859 90.0158C22.6604 90.8031 22.8486 91.6486 23.0512 92.5519L23.4132 93.9575C23.7958 95.4077 24.2391 96.993 24.743 98.7136L25.0072 99.6155L24.0751 99.4893C21.0984 99.0856 18.8862 98.8231 17.4318 98.7005L15.1496 98.5082C14.4766 98.4515 13.5356 98.445 12.3158 98.4939L12.308 98.4945H12.3009C11.2827 98.5102 9.87931 98.5441 8.08945 98.5969C6.35367 98.6539 4.17912 98.7505 1.56541 98.8868L0 98.969L1.09728 97.8515C2.42267 96.5021 3.4763 95.2671 4.26448 94.1468L4.26925 94.1409C5.13054 92.9482 5.79029 91.9523 6.25449 91.1505L6.25867 91.1446L6.26224 91.138C6.83568 90.1998 7.24039 89.3895 7.48953 88.7037C7.69398 87.9543 7.90789 86.6212 8.12344 84.6704L8.20455 83.9048C8.39137 82.0898 8.5564 80.0762 8.69892 77.864L8.70011 77.8521C8.91776 75.2784 9.09585 72.5732 9.23384 69.7366L9.23325 69.7306L9.23384 69.7253C9.42258 66.8904 9.56893 64.2568 9.67275 61.8241C9.76359 59.6956 9.81247 57.8395 9.81886 56.2554V55.5755C9.862 53.8846 9.87417 52.8487 9.8606 52.4399C9.82598 52.2103 9.7705 51.9689 9.69482 51.7148L35.8405 72.2102ZM119.12 52.7941C119.168 53.7098 119.22 54.6614 119.277 55.6487C119.471 58.1242 119.675 60.7 119.892 63.3761L119.893 63.3767C120.162 66.0566 120.412 68.5856 120.645 70.963C120.927 73.3244 121.204 75.4302 121.475 77.2806L121.575 77.9319C121.805 79.3881 122.019 80.4035 122.215 81.0026L122.218 81.0121L122.221 81.0216C122.438 81.7649 122.732 82.5223 123.106 83.2934L123.271 83.625L123.275 83.6321C123.667 84.425 124.167 85.2869 124.781 86.2176C125.366 87.0645 126.092 87.852 126.962 88.5793L127.943 89.3997L106.879 93.5122L107.999 92.1876C108.65 91.4175 109.146 90.7023 109.497 90.042C109.857 89.3025 110.126 88.6833 110.307 88.181C110.475 87.6499 110.575 87.1601 110.613 86.71C110.591 86.0981 110.542 85.0475 110.464 83.5547V83.5464C110.415 82.2845 110.303 80.4902 110.127 78.1605C109.961 75.9614 109.713 73.0855 109.386 69.5324C108.827 69.6092 108.189 69.7083 107.472 69.83L107.457 69.8324L107.442 69.8342C106.492 69.9471 105.597 70.0786 104.757 70.2289L104.752 70.2301C103.741 70.4018 102.678 70.5539 101.563 70.6867C100.465 70.868 99.3183 71.0551 98.1218 71.2481C97.1228 71.4692 95.9995 71.7057 94.7524 71.956L94.7298 71.9595C94.7051 71.9635 94.6805 71.9674 94.6558 71.9714L119.12 52.7941ZM91.8244 74.1908C91.9519 75.4041 92.1068 76.5091 92.2895 77.5062L92.3975 78.0712C92.6151 79.1783 92.8446 80.1495 93.0851 80.9865L93.2061 81.3943L93.2109 81.4098C93.5625 82.6719 93.9393 83.7432 94.3392 84.6281C94.6446 85.2751 94.9645 85.9208 95.2981 86.5647L95.6362 87.2083L95.6398 87.2148C96.0311 87.9701 96.479 88.771 96.9834 89.6176C97.5341 90.4519 98.0698 91.1833 98.5899 91.8125L99.4004 92.7924L98.1272 92.8097C97.1623 92.8229 96.2777 92.8527 95.4734 92.8978L95.4543 92.8984H95.4353C94.6212 92.8937 93.9025 92.8769 93.2801 92.8484C92.6944 92.876 92.1257 92.9009 91.5739 92.9246L87.0578 77.9283L91.8244 74.1908ZM36.1005 50.0723C37.0964 51.7247 37.8617 53.1934 38.3988 54.4825L38.4012 54.4872L38.4024 54.4914C38.995 55.8535 39.4482 57.0187 39.7644 57.989C40.1152 59.1048 40.3231 60.0674 40.399 60.8805C40.4378 61.553 40.4026 62.5852 40.2833 63.9958C40.164 65.4061 40.0067 66.9672 39.811 68.6793L39.8092 68.6971C39.6689 70.3554 39.4723 72.0866 39.2182 73.8902L39.2158 73.9063C39.1824 74.2003 39.1484 74.4908 39.1156 74.7778L35.8405 72.2102C35.751 71.8954 35.6613 71.5774 35.5691 71.257C34.9369 69.0602 34.3401 67.0442 33.7789 65.2091L33.7765 65.2014L33.7741 65.1948L33.4026 64.0631C33.024 62.8976 32.6249 61.6291 32.2057 60.2584L32.2034 60.2512C31.8388 59.1077 31.4037 57.7867 30.8974 56.2887L30.3672 54.7313C29.9017 53.2748 29.397 51.7219 28.8543 50.0723H36.1005ZM91.8244 74.1908C91.7677 73.6518 91.7162 73.0915 91.6705 72.5096C92.6635 72.3132 93.6588 72.1332 94.6558 71.9714L91.8244 74.1908ZM107.43 50.0723C107.619 51.0994 107.78 52.3402 107.911 53.7985L107.913 53.8163C108.094 55.3331 108.201 57.1492 108.235 59.2677C105.434 59.8317 103.33 60.2229 101.918 60.4387L101.912 60.4393L101.904 60.4411C101.01 60.5982 100.213 60.7436 99.5143 60.8775L97.0293 61.1734C96.1634 61.2764 95.1021 61.4275 93.8478 61.6276C92.7584 61.7571 91.4946 61.8873 90.0562 62.0199C90.0517 58.8555 90.0492 56.2698 90.0491 54.2628C90.0889 52.5554 90.1494 51.1598 90.2286 50.0723H107.43ZM122.593 50.0723L119.12 52.7941C119.07 51.8486 119.025 50.9413 118.984 50.0723H122.593ZM9.0615 50.2021L9.19269 50.4551C9.41322 50.9045 9.57851 51.3243 9.69482 51.7148L7.59985 50.0723H8.98934C9.01331 50.1162 9.0385 50.1589 9.0615 50.2021ZM120.679 37.7913C120.37 38.5195 120.113 39.2666 119.908 40.0321C119.7 40.8061 119.532 41.4976 119.406 42.1068C119.345 42.4844 119.29 42.8221 119.23 43.1998L119.097 44.0214C119.085 44.0984 119.067 44.203 119.054 44.2827C118.934 45.3307 118.891 46.8593 118.929 48.8834C118.946 49.2714 118.965 49.6677 118.984 50.0723H107.43C107.397 49.8969 107.365 49.7275 107.331 49.5645L107.33 49.5585C107.078 48.2873 106.802 47.2325 106.507 46.3878C106.308 45.9336 106.024 45.3832 105.649 44.7346L105.646 44.7292C105.333 44.176 104.903 43.5032 104.352 42.7087L104.341 42.6914L104.33 42.6736C103.83 41.8352 103.157 40.8327 102.305 39.6648L101.569 38.6551L102.82 38.6974C104.144 38.7424 105.308 38.7547 106.314 38.7361C107.373 38.661 108.261 38.6068 108.976 38.5729C109.783 38.5276 110.455 38.4727 110.994 38.4086L111.431 38.3521C111.901 38.2868 112.472 38.1955 113.143 38.0776L113.753 37.9705C114.392 37.8653 115.129 37.7637 115.962 37.6645C117.061 37.4828 118.409 37.2461 120.007 36.9542L121.121 36.7506L120.679 37.7913ZM93.3838 40.3851C92.7836 41.2029 92.3098 41.9723 91.9586 42.6932L91.9544 42.7021L91.9496 42.7117C91.5853 43.3985 91.3195 44.0121 91.1469 44.5536L91.1404 44.5744C90.9176 45.1931 90.7383 45.7534 90.6025 46.2556C90.4869 46.9002 90.3834 47.8996 90.2947 49.2698L90.2936 49.2894C90.2705 49.5298 90.2491 49.7907 90.2286 50.0723H78.8789C78.7419 49.8211 78.5951 49.5646 78.4376 49.3031L76.252 42.0455C76.6901 42.0353 77.1002 42.0244 77.4822 42.011C78.6939 41.9178 79.6611 41.8546 80.3805 41.8205C81.2405 41.769 81.9129 41.7142 82.4009 41.6561C83.2474 41.5555 84.2187 41.4141 85.3158 41.2329C86.2619 41.0696 87.3574 40.8631 88.6029 40.6131C89.8751 40.3106 91.2416 39.9216 92.7016 39.4451L94.5062 38.8563L93.3838 40.3851ZM5.98315 44.2143C8.22325 44.8095 10.0603 45.2413 11.4976 45.5133C12.9559 45.7892 14.1389 46.0169 15.0452 46.1955C16.0837 46.383 16.8736 46.4711 17.4312 46.4718H17.4563L22.7996 46.9218C24.0793 46.9787 25.6564 47.0861 27.5286 47.2439L27.9293 47.2778L28.0564 47.6594C28.3312 48.4854 28.5968 49.2898 28.8543 50.0723H8.98934C8.68056 49.5062 8.29301 48.8775 7.82169 48.1869L7.81215 48.1714C7.25508 47.3012 6.4508 46.3205 5.388 45.2281L3.85002 43.6469L5.98315 44.2143ZM36.4541 48.7608C38.5263 48.9863 40.2176 49.1545 41.529 49.265L44.7237 49.5341C45.6292 49.6104 46.3178 49.6433 46.799 49.6359L46.8294 49.6353L46.8598 49.6377C47.4887 49.6907 48.2789 49.7084 49.235 49.6889C49.9197 49.6664 50.7204 49.67 51.6353 49.6984L51.5232 50.0723H36.1005C36.0237 49.9449 35.9469 49.8155 35.8673 49.6859L35.2173 48.6262L36.4541 48.7608Z" fill="#DDFF00" fill-opacity="0.81"/>
<path d="M119.176 53.0483C119.225 53.964 119.277 54.9156 119.334 55.9029C119.527 58.3784 119.731 60.9542 119.949 63.6303L119.95 63.6309C120.218 66.3108 120.469 68.8398 120.701 71.2172C120.983 73.5786 121.26 75.6844 121.532 77.5348L121.632 78.1861C121.861 79.6423 122.076 80.6577 122.272 81.2568L122.275 81.2663L122.277 81.2758C122.495 82.0191 122.789 82.7765 123.162 83.5476L123.328 83.8792L123.332 83.8863C123.723 84.6793 124.224 85.5411 124.838 86.4719C125.423 87.3187 126.148 88.1062 127.018 88.8335L128 89.6539L106.935 93.7664L108.055 92.4418C108.707 91.6717 109.203 90.9565 109.554 90.2962C109.914 89.5567 110.182 88.9375 110.364 88.4352C110.532 87.9041 110.632 87.4144 110.67 86.9642C110.648 86.3523 110.598 85.3017 110.52 83.8089V83.8006C110.471 82.5387 110.359 80.7444 110.184 78.4147C110.018 76.2156 109.77 73.3397 109.443 69.7866C108.883 69.8634 108.245 69.9625 107.529 70.0843L107.514 70.0866L107.498 70.0884C106.549 70.2014 105.654 70.3328 104.814 70.4831L104.809 70.4843C103.798 70.656 102.735 70.8081 101.619 70.9409C100.522 71.1222 99.3749 71.3093 98.1785 71.5023C97.1795 71.7234 96.0562 71.9599 94.8091 72.2102L94.7864 72.2137C94.7618 72.2177 94.7371 72.2216 94.7125 72.2256L119.176 53.0483ZM91.881 74.445C92.0085 75.6583 92.1634 76.7633 92.3462 77.7604L92.4541 78.3254C92.6717 79.4325 92.9012 80.4037 93.1417 81.2407L93.2628 81.6485L93.2675 81.664C93.6191 82.9261 93.9959 83.9974 94.3958 84.8823C94.7012 85.5293 95.0211 86.175 95.3548 86.8189L95.6929 87.4625L95.6965 87.469C96.0878 88.2243 96.5356 89.0252 97.04 89.8718C97.5908 90.7061 98.1265 91.4375 98.6466 92.0667L99.457 93.0467L98.1838 93.0639C97.2189 93.0771 96.3344 93.1069 95.5301 93.152L95.511 93.1526H95.4919C94.6778 93.1479 93.9591 93.1311 93.3367 93.1026C92.7511 93.1302 92.1823 93.1551 91.6306 93.1788L87.1144 78.1825L91.881 74.445ZM91.881 74.445C91.8244 73.906 91.7729 73.3457 91.7272 72.7638C92.7201 72.5674 93.7154 72.3874 94.7125 72.2256L91.881 74.445ZM107.486 50.3265C107.675 51.3536 107.837 52.5944 107.968 54.0527L107.97 54.0705C108.151 55.5873 108.258 57.4034 108.292 59.5219C105.491 60.0859 103.387 60.4771 101.975 60.6929L101.968 60.6935L101.961 60.6953C101.067 60.8524 100.27 60.9978 99.5709 61.1317L97.086 61.4276C96.22 61.5306 95.1588 61.6817 93.9044 61.8818C92.815 62.0113 91.5513 62.1415 90.1129 62.2741C90.1084 59.1097 90.1059 56.524 90.1057 54.517C90.1456 52.8096 90.206 51.414 90.2852 50.3265H107.486ZM122.65 50.3265L119.176 53.0483C119.126 52.1028 119.081 51.1955 119.04 50.3265H122.65ZM120.735 38.0455C120.426 38.7737 120.17 39.5208 119.964 40.2863C119.756 41.0603 119.589 41.7518 119.463 42.361C119.402 42.7386 119.347 43.0763 119.286 43.454L119.154 44.2756C119.141 44.3527 119.124 44.4572 119.111 44.5369C118.991 45.5849 118.947 47.1136 118.986 49.1376C119.003 49.5256 119.021 49.9219 119.04 50.3265H107.486C107.454 50.1511 107.422 49.9817 107.388 49.8187L107.387 49.8127C107.135 48.5415 106.859 47.4867 106.564 46.642C106.365 46.1878 106.081 45.6374 105.706 44.9888L105.703 44.9834C105.39 44.4302 104.96 43.7574 104.409 42.9629L104.398 42.9456L104.386 42.9278C103.887 42.0894 103.213 41.0869 102.362 39.919L101.625 38.9093L102.876 38.9516C104.201 38.9966 105.365 39.0089 106.371 38.9903C107.43 38.9152 108.318 38.861 109.033 38.8271C109.84 38.7818 110.512 38.7269 111.051 38.6628L111.488 38.6063C111.958 38.541 112.528 38.4497 113.2 38.3318L113.81 38.2247C114.449 38.1195 115.186 38.0179 116.018 37.9187C117.117 37.737 118.465 37.5003 120.063 37.2084L121.177 37.0048L120.735 38.0455ZM93.4405 40.6393C92.8403 41.4571 92.3665 42.2265 92.0152 42.9474L92.011 42.9563L92.0063 42.9659C91.6419 43.6527 91.3762 44.2663 91.2036 44.8078L91.197 44.8286C90.9743 45.4473 90.7949 46.0076 90.6591 46.5099C90.5435 47.1544 90.4401 48.1538 90.3514 49.524L90.3502 49.5436C90.3272 49.784 90.3057 50.0449 90.2852 50.3265H78.9355C78.7986 50.0753 78.6518 49.8188 78.4942 49.5573L76.3086 42.2997C76.7468 42.2895 77.1569 42.2786 77.5389 42.2652C78.7506 42.172 79.7178 42.1088 80.4371 42.0747C81.2971 42.0232 81.9695 41.9684 82.4575 41.9103C83.304 41.8097 84.2753 41.6683 85.3725 41.4871C86.3185 41.3238 87.4141 41.1173 88.6596 40.8673C89.9318 40.5648 91.2982 40.1758 92.7583 39.6993L94.5628 39.1105L93.4405 40.6393Z" fill="#1AC531"/>
<path d="M36.1124 72.2739C36.6353 74.1144 37.1119 75.859 37.5401 77.5074L38.6195 81.3062C38.7114 80.5855 38.8124 79.7799 38.9188 78.8892C39.068 77.628 39.2235 76.2787 39.3876 74.8415L43.4063 77.992L37.1447 98.7844C35.9931 96.2653 34.9858 94.0397 34.123 92.1078L34.117 92.0941C33.0131 89.453 32.0991 87.2869 31.375 85.5967L31.3715 85.5896C30.5666 83.6359 29.8884 81.9985 29.3367 80.6787L29.3313 80.6656L29.326 80.6513C28.8794 79.413 28.2702 77.9772 27.4958 76.3429L27.4952 76.3417C26.8483 74.9667 26.0241 73.269 25.0215 71.2493L25.0192 71.2445L25.0162 71.2392C24.2853 69.6917 23.432 67.9667 22.4572 66.0634C22.1343 68.7062 21.8881 71.0223 21.7196 73.0127L21.6152 74.7582C21.5221 76.4224 21.4623 77.8592 21.4357 79.0695L21.4351 79.7589C21.4407 81.3278 21.485 82.6622 21.5669 83.7637C21.7151 84.9734 21.9509 86.3454 22.2742 87.881L22.7578 90.0795C22.9323 90.8668 23.1205 91.7123 23.3231 92.6156L23.6851 94.0212C24.0677 95.4714 24.511 97.0567 25.015 98.7773L25.2792 99.6792L24.3471 99.553C21.3704 99.1493 19.1582 98.8868 17.7038 98.7642L15.4215 98.5719C14.7486 98.5152 13.8075 98.5087 12.5877 98.5576L12.5799 98.5582H12.5728C11.5547 98.5739 10.1512 98.6078 8.36139 98.6606C6.6256 98.7176 4.45106 98.8142 1.83735 98.9505L0.271934 99.0327L1.36921 97.9152C2.6946 96.5658 3.74824 95.3308 4.53641 94.2105L4.54119 94.2046C5.40248 93.0119 6.06223 92.016 6.52643 91.2142L6.5306 91.2083L6.53418 91.2017C7.10761 90.2635 7.51233 89.4532 7.76146 88.7674C7.96591 88.018 8.17983 86.6849 8.39538 84.7341L8.47648 83.9685C8.6633 82.1535 8.82834 80.1399 8.97085 77.9277L8.97205 77.9158C9.18969 75.3421 9.36779 72.6369 9.50578 69.8003L9.50518 69.7943L9.50578 69.789C9.69451 66.9541 9.84086 64.3205 9.94469 61.8878C10.0355 59.7593 10.0844 57.9032 10.0908 56.3191V55.6392C10.1339 53.9483 10.1461 52.9124 10.1325 52.5036C10.0979 52.274 10.0424 52.0326 9.96675 51.7785L36.1124 72.2739ZM36.3724 50.136C37.3683 51.7884 38.1337 53.2571 38.6707 54.5462L38.6731 54.5509L38.6743 54.5551C39.2669 55.9172 39.7201 57.0824 40.0364 58.0527C40.3871 59.1685 40.5951 60.1311 40.6709 60.9442C40.7098 61.6167 40.6745 62.6489 40.5552 64.0595C40.4359 65.4698 40.2786 67.0309 40.0829 68.743L40.0811 68.7608C39.9409 70.4191 39.7442 72.1503 39.4901 73.9539L39.4877 73.97C39.4544 74.264 39.4203 74.5545 39.3876 74.8415L36.1124 72.2739C36.023 71.9591 35.9333 71.6411 35.8411 71.3207C35.2089 69.1239 34.612 67.1079 34.0508 65.2728L34.0485 65.2651L34.0461 65.2585L33.6745 64.1268C33.296 62.9613 32.8969 61.6928 32.4777 60.3221L32.4753 60.3149C32.1107 59.1714 31.6756 57.8504 31.1693 56.3524L30.6391 54.795C30.1736 53.3385 29.6689 51.7856 29.1262 50.136H36.3724ZM9.33343 50.2658L9.46463 50.5188C9.68515 50.9682 9.85044 51.388 9.96675 51.7785L7.87179 50.136H9.26127C9.28524 50.1799 9.31043 50.2226 9.33343 50.2658ZM6.25509 44.278C8.49518 44.8732 10.3322 45.305 11.7695 45.577C13.2279 45.8529 14.4109 46.0806 15.3172 46.2592C16.3556 46.4467 17.1455 46.5348 17.7032 46.5355H17.7282L23.0715 46.9855C24.3513 47.0424 25.9284 47.1498 27.8005 47.3076L28.2013 47.3415L28.3283 47.7231C28.6031 48.5491 28.8687 49.3535 29.1262 50.136H9.26127C8.9525 49.5699 8.56495 48.9412 8.09363 48.2506L8.08409 48.2351C7.52701 47.3649 6.72274 46.3842 5.65993 45.2918L4.12195 43.7106L6.25509 44.278ZM36.7261 48.8245C38.7982 49.05 40.4895 49.2182 41.801 49.3287L44.9956 49.5978C45.9011 49.6741 46.5897 49.707 47.0709 49.6996L47.1013 49.699L47.1317 49.7014C47.7606 49.7544 48.5509 49.7721 49.507 49.7526C50.1916 49.7301 50.9924 49.7337 51.9073 49.7621L51.7952 50.136H36.3724C36.2956 50.0086 36.2188 49.8792 36.1392 49.7496L35.4892 48.6899L36.7261 48.8245Z" fill="#1AC531"/>
<path d="M55.9983 104.633C53.7055 104.633 51.5169 104.529 49.4325 104.321C47.3481 104.113 44.6905 103.489 41.4597 102.448C40.9386 102.032 40.3133 101.096 39.5838 99.6392C38.9584 98.0786 38.6458 96.8821 38.6458 96.0498C38.6458 95.6337 38.8021 95.4256 39.1148 95.4256C39.6359 95.4256 41.0428 95.7377 43.3357 96.3619C45.6285 96.8821 48.7029 97.1422 52.5591 97.1422C57.6658 97.1422 61.8867 96.1539 65.2217 94.1771C68.5567 92.0962 70.2242 89.1831 70.2242 85.4376C70.2242 82.9406 69.3384 80.5477 67.5666 78.2588C65.8991 75.9699 63.8147 73.733 61.3135 71.5481C58.8122 69.2592 56.2588 66.9183 53.6534 64.5253C51.1521 62.1324 49.0156 59.5834 47.2439 56.8783C45.5764 54.0692 44.7426 51 44.7426 47.6707C44.7426 46.1101 45.2116 44.1853 46.1496 41.8964C47.0876 39.6075 48.9635 37.2666 51.7774 34.8736C54.5913 32.4807 58.8122 30.2438 64.4401 28.163C70.0679 26.0821 77.5196 24.4175 86.7951 23.169L90.2343 26.1342L85.2318 40.0237C83.2516 38.6711 80.9588 37.5787 78.3533 36.7464C75.8521 35.81 73.4029 35.3418 71.0059 35.3418C67.9835 35.3418 65.2738 36.0181 62.8768 37.3706C60.5839 38.6191 59.4375 40.908 59.4375 44.2373C59.4375 46.6303 60.3755 49.0232 62.2515 51.4162C64.1274 53.7051 66.4202 56.046 69.1299 58.4389C71.9438 60.7278 74.7057 63.1728 77.4154 65.7738C80.1251 68.2708 82.4179 71.0279 84.2938 74.0451C86.1698 76.9583 87.1078 80.1315 87.1078 83.5649C87.1078 85.5417 86.743 87.7265 86.0134 90.1195C85.2839 92.5124 83.8248 94.8013 81.6362 96.9862C79.5519 99.171 76.4253 100.992 72.2565 102.448C68.192 103.905 62.7725 104.633 55.9983 104.633Z" fill="#1AC531"/>
</g>
<defs>
<filter id="filter0_i_10_69" x="0" y="5" width="128" height="122" filterUnits="userSpaceOnUse" color-interpolation-filters="sRGB">
<feFlood flood-opacity="0" result="BackgroundImageFix"/>
<feBlend mode="normal" in="SourceGraphic" in2="BackgroundImageFix" result="shape"/>
<feColorMatrix in="SourceAlpha" type="matrix" values="0 0 0 0 0 0 0 0 0 0 0 0 0 0 0 0 0 0 127 0" result="hardAlpha"/>
<feOffset dy="4"/>
<feGaussianBlur stdDeviation="2"/>
<feComposite in2="hardAlpha" operator="arithmetic" k2="-1" k3="1"/>
<feColorMatrix type="matrix" values="0 0 0 0 0 0 0 0 0 0 0 0 0 0 0 0 0 0 0.25 0"/>
<feBlend mode="normal" in2="shape" result="effect1_innerShadow_10_69"/>
</filter>
</defs>
</svg>
