<svg xmlns="http://www.w3.org/2000/svg" version="1.1" xmlns:xlink="http://www.w3.org/1999/xlink"
    xmlns:svgjs="http://svgjs.dev/svgjs" width="100%" height="560" preserveAspectRatio="none"
    viewBox="0 0 1440 560">
    <g mask="url(&quot;#SvgjsMask1012&quot;)" fill="none">
        <path
            d="M79.55 140C79.55 110.15 20.97 123.05 0 86.15C-18.81 53.05 -22.05 21.03 0 0C23.11 -22.05 55.27 -18.81 90.32 0C125.27 18.75 104.94 72.9 140 75.12C199.78 78.9 207.02 23.98 280 12C347.02 1 349.96 20.93 420 29.17C489.96 37.4 493.98 54.11 560 44.94C598.98 39.53 591.99 12.2 630 0C661.99 -10.27 665 0 700 0C770 0 770 0 840 0C910 0 910 0 980 0C1038.34 0 1059.95 -27.05 1096.67 0C1129.95 24.53 1106.95 103.16 1120 103.16C1133.24 103.16 1114.82 25.37 1149.25 0C1184.82 -26.21 1204.63 0 1260 0C1330 0 1330 0 1400 0C1470 0 1505 -35 1540 0C1575 35 1540 70 1540 140C1540 210 1540 210 1540 280C1540 350 1540 350 1540 420C1540 490 1574.39 524.39 1540 560C1506.8 594.39 1471.28 562.55 1404.83 560C1401.28 559.86 1402.39 554.62 1400 554.62C1397.64 554.62 1398.83 559.87 1395.33 560C1328.83 562.56 1327.66 560 1260 560C1201.16 560 1168.47 591.96 1142.32 560C1111.2 521.96 1152.84 488.45 1145.45 420C1141.68 385.12 1139.72 382.25 1120 353.33C1091.99 312.25 1090.83 306.8 1050 280C1020.83 260.86 1012.47 261.45 980 261.45C968.31 261.45 961.67 267.64 961.67 280C961.67 346.92 970.84 350 980 420C980 420 980 420 980 420C1009.47 490 1038.95 509.57 1038.95 560C1038.95 579.57 1009.47 560 980 560C910 560 910 560 840 560C770 560 770 560 700 560C630 560 630 560 560 560C490 560 490 560 420 560C373.34 560 369.94 570.46 326.67 560C299.94 553.54 302.04 526.15 280 526.15C261.6 526.15 267.67 554.71 245.78 560C197.67 571.63 192.89 560 140 560C70 560 35 595 0 560C-35 525 0 490 0 420C0 350 0 350 0 280C0 246.46 -15.25 239.75 0 212.92C24.53 169.75 79.55 173.53 79.55 140"
            stroke="rgba(105, 211, 100, 1)" stroke-width="2" class="svg-elem-1"></path>
        <path
            d="M1260 137.41C1248.35 137.41 1236.67 138.76 1236.67 140C1236.67 141.24 1248.34 142.37 1260 142.37C1270.01 142.37 1280 141.24 1280 140C1280 138.76 1270.01 137.41 1260 137.41"
            stroke="rgba(105, 211, 100, 1)" stroke-width="2" class="svg-elem-2"></path>
        <path
            d="M700 233.33C674.64 233.33 644.16 248.5 641.67 280C636.79 341.83 659.6 352.45 685.26 420C688.76 429.22 692.27 433.55 700 433.55C708.77 433.55 716.16 430.69 718.26 420C731.22 353.92 736.65 346.89 730.11 280C727.52 253.56 718.86 233.33 700 233.33"
            stroke="rgba(105, 211, 100, 1)" stroke-width="2" class="svg-elem-3"></path>
        <path
            d="M1400 260C1397.44 260 1397.63 270.36 1397.63 280C1397.63 281.74 1398.44 282.75 1400 282.75C1403.74 282.75 1408.24 283.26 1408.24 280C1408.24 271.88 1402.75 260 1400 260"
            stroke="rgba(105, 211, 100, 1)" stroke-width="2" class="svg-elem-4"></path>
        <path
            d="M33.87 0C33.87 9.37 10.02 32.31 0 32.31C-6.92 32.31 -8.27 7.89 0 0C8.67 -8.27 33.87 -6.78 33.87 0"
            stroke="rgba(105, 211, 100, 1)" stroke-width="2" class="svg-elem-5"></path>
        <path
            d="M204.62 140C242.84 127.68 241.43 123.14 280 112C349.12 92.03 349.08 83.82 420 77.78C489.08 71.9 495.88 106.14 560 88.15C634.53 67.25 628.45 43.36 697.31 0C698.45 -0.71 698.65 0 700 0C770 0 770 0 840 0C910 0 910 0 980 0C1017.5 0 1038.02 -24.2 1055 0C1087.13 45.8 1098.06 81.97 1078.21 140C1060.56 191.61 1027.19 177.52 980 219.28C948.08 247.52 936.38 242.43 920 280C892.63 342.79 890.45 350.44 892.5 420C894.58 490.44 944.56 516.54 928.26 560C918.31 586.54 884.13 560 840 560C770 560 770 560 700 560C630 560 630 560 560 560C490 560 490 560 420 560C399.85 560 379.7 571.96 379.7 560C379.7 535.02 396.38 520.69 420 486.11C444.2 450.69 475.35 449.89 475.35 420C475.35 395.96 445.87 378.25 420 378.25C398.68 378.25 403.36 402.5 380.98 420C333.36 457.22 327.16 449.77 280 487.69C240.11 519.77 249.3 538.09 206.89 560C179.3 574.25 173.44 560 140 560C70 560 35 595 0 560C-35 525 0 490 0 420C0 357.37 -2.76 356.81 0 294.74C0.35 286.81 0.55 285.57 6.22 280C70.55 216.77 67.49 208.31 140 157.14C166.69 138.31 172.84 150.25 204.62 140"
            stroke="rgba(105, 211, 100, 1)" stroke-width="2" class="svg-elem-6"></path>
        <path
            d="M1260 72.59C1220.43 60.75 1201.49 22.3 1201.49 0C1201.49 -13.99 1230.74 0 1260 0C1330 0 1330 0 1400 0C1470 0 1495.1 -25.1 1540 0C1565.1 14.02 1564.95 67.66 1540 78.24C1494.95 97.35 1470.16 60.81 1400 59.39C1330.16 57.98 1319.68 90.45 1260 72.59"
            stroke="rgba(105, 211, 100, 1)" stroke-width="2" class="svg-elem-7"></path>
        <path
            d="M700 175C642.93 175 588.84 215.36 568.75 280C550.77 337.86 584.97 357.78 623.86 420C650.59 462.78 660.09 490 700 490C745.33 490 779.05 467.45 794.35 420C812.92 362.45 792.88 345.27 767.74 280C745.7 222.77 742.43 175 700 175"
            stroke="rgba(105, 211, 100, 1)" stroke-width="2" class="svg-elem-8"></path>
        <path
            d="M1161.7 280C1173.4 229.84 1213.06 201.69 1260 201.69C1301.36 201.69 1300.51 239.59 1338.31 280C1370.51 314.43 1359.5 334.5 1400 351.37C1460.35 376.5 1489.94 339.46 1540 364C1559.94 373.78 1540 392 1540 420C1540 490 1564.38 514.38 1540 560C1526.97 584.38 1495.54 575.77 1465.17 560C1425.54 539.43 1432.28 487.31 1400 487.31C1368.19 487.31 1375.88 539.81 1337 560C1305.88 576.16 1298.5 560 1260 560C1226.52 560 1201.24 582.55 1193.04 560C1175.78 512.55 1216.74 488.33 1209.09 420C1201.07 348.33 1147.94 338.99 1161.7 280"
            stroke="rgba(105, 211, 100, 1)" stroke-width="2" class="svg-elem-9"></path>
        <path
            d="M380.8 140C397.79 128.48 399.52 127.38 420 126.39C489.12 123.06 490.29 126.28 560 131.36C583.62 133.08 606.67 131.87 606.67 140C606.67 149.15 577.82 146.73 560 165.93C512.87 216.73 524.08 228.99 476.76 280C454.08 304.44 444.81 294.16 420 316.84C368.24 364.16 374.64 371.75 323.61 420C304.64 437.94 299.45 431.73 280 449.23C221.64 501.73 227.44 512.97 168 560C157.44 568.36 154 560 140 560C70 560 52.5 577.5 0 560C-17.5 554.17 -5.75 535.59 0 513.33C12.32 465.59 19.18 467.07 36.13 420C61.18 350.41 49.69 343.22 84 280C101.63 247.51 105.54 238.89 140 228.57C203.54 209.54 217.41 244.31 280 221.29C337.81 200.03 327.79 175.93 380.8 140"
            stroke="rgba(105, 211, 100, 1)" stroke-width="2" class="svg-elem-10"></path>
        <path
            d="M840 52.5C821.79 25.65 801.82 16.53 801.82 0C801.82 -9.72 820.91 0 840 0C910 0 910 0 980 0C996.66 0 1008.92 -13.42 1013.33 0C1031.91 56.58 1037.7 77.65 1025.97 140C1021.04 166.2 1005.41 177.11 980 177.11C940.8 177.11 929.4 169.05 896.76 140C859.4 106.75 869.26 95.65 840 52.5"
            stroke="rgba(105, 211, 100, 1)" stroke-width="2" class="svg-elem-11"></path>
        <path
            d="M1260 7.78C1255.58 7.78 1253.73 2.39 1253.73 0C1253.73 -1.5 1256.86 0 1260 0C1275 0 1290 -1.91 1290 0C1290 1.98 1273.71 7.78 1260 7.78"
            stroke="rgba(105, 211, 100, 1)" stroke-width="2" class="svg-elem-12"></path>
        <path
            d="M805.38 280C805.38 237.22 821.91 195.26 840 195.26C858.38 195.26 878.33 237.15 878.33 280C878.33 328.31 858.35 377.58 840 377.58C821.88 377.58 805.38 328.38 805.38 280"
            stroke="rgba(105, 211, 100, 1)" stroke-width="2" class="svg-elem-13"></path>
        <path
            d="M1236.17 280C1236.17 266.64 1248.62 261.02 1260 261.02C1270.03 261.02 1278.98 267.74 1278.98 280C1278.98 320.3 1270.63 366.15 1260 366.15C1249.23 366.15 1236.17 319.2 1236.17 280"
            stroke="rgba(105, 211, 100, 1)" stroke-width="2" class="svg-elem-14"></path>
        <path
            d="M556.74 420C556.74 416.7 558.53 413.91 560 413.91C561.39 413.91 562.46 416.8 562.46 420C562.46 428.6 561.42 437.5 560 437.5C558.56 437.5 556.74 428.5 556.74 420"
            stroke="rgba(105, 211, 100, 1)" stroke-width="2" class="svg-elem-15"></path>
        <path
            d="M635.38 560C635.38 556.58 667.6 552.78 700 546.45C769.91 532.78 781.18 514.76 840 520C857.26 521.54 852.17 544.51 852.17 560C852.17 564.51 846.09 560 840 560C770 560 770 560 700 560C667.69 560 635.38 563.35 635.38 560"
            stroke="rgba(105, 211, 100, 1)" stroke-width="2" class="svg-elem-16"></path>
        <path
            d="M1243.77 560C1243.77 523.65 1251.3 473.85 1260 473.85C1268.75 473.85 1278.67 524.45 1278.67 560C1278.67 567.53 1269.34 560 1260 560C1251.89 560 1243.77 566.73 1243.77 560"
            stroke="rgba(105, 211, 100, 1)" stroke-width="2" class="svg-elem-17"></path>
        <path
            d="M1525.52 560C1525.52 547.96 1536.23 526.4 1540 526.4C1543.47 526.4 1545.06 548.26 1540 560C1537.82 565.06 1525.52 564.76 1525.52 560"
            stroke="rgba(105, 211, 100, 1)" stroke-width="2" class="svg-elem-18"></path>
    </g>
    <defs>
        <mask id="SvgjsMask1012">
            <rect width="1440" height="560" fill="#ffffff" class="svg-elem-19"></rect>
        </mask>
    </defs>
</svg>