<svg width="128" height="128" viewBox="0 0 128 128" fill="none" xmlns="http://www.w3.org/2000/svg">
<rect width="128" height="128" fill="#1E1E1E"/>
<g clip-path="url(#clip0_2002_51)">
<path fill-rule="evenodd" clip-rule="evenodd" d="M40.1311 24.6454C40.1243 24.781 40.1208 24.9175 40.1208 25.0547V44.2642C40.1208 47.9687 42.6642 51.1887 46.2681 52.0467L61.7411 55.7302C62.9592 56.0202 64.2284 56.0202 65.4465 55.7302L80.9195 52.0467C84.5234 51.1887 87.0668 47.9687 87.0668 44.2642V25.0547C87.0668 24.8277 87.0573 24.6029 87.0388 24.3807L63.6202 33.6726C63.3833 33.7666 63.1195 33.7666 62.8826 33.6726L40.1311 24.6454Z" fill="#1A1A1A"/>
<path d="M40.1311 24.6454L40.8687 22.7864C40.2693 22.5486 39.592 22.6144 39.0495 22.9631C38.5071 23.3118 38.1661 23.9007 38.1336 24.5448L40.1311 24.6454ZM46.2681 52.0467L46.7313 50.101H46.7313L46.2681 52.0467ZM61.7411 55.7302L62.2042 53.7846V53.7846L61.7411 55.7302ZM65.4465 55.7302L64.9833 53.7846V53.7846L65.4465 55.7302ZM80.9195 52.0467L81.3827 53.9923V53.9923L80.9195 52.0467ZM87.0388 24.3807L89.0319 24.2145C88.9792 23.5834 88.6308 23.0145 88.0926 22.6809C87.5543 22.3472 86.8898 22.2882 86.3012 22.5217L87.0388 24.3807ZM63.6202 33.6726L62.8826 31.8136L62.8826 31.8136L63.6202 33.6726ZM62.8826 33.6726L62.145 35.5317H62.145L62.8826 33.6726ZM40.1208 25.0547H42.1208C42.1208 24.951 42.1234 24.8482 42.1286 24.7461L40.1311 24.6454L38.1336 24.5448C38.1251 24.7139 38.1208 24.8839 38.1208 25.0547H40.1208ZM40.1208 44.2642H42.1208V25.0547H40.1208H38.1208V44.2642H40.1208ZM46.2681 52.0467L46.7313 50.101C44.0284 49.4576 42.1208 47.0426 42.1208 44.2642H40.1208H38.1208C38.1208 48.8949 41.3001 52.9199 45.8049 53.9923L46.2681 52.0467ZM61.7411 55.7302L62.2042 53.7846L46.7313 50.101L46.2681 52.0467L45.8049 53.9923L61.2779 57.6759L61.7411 55.7302ZM65.4465 55.7302L64.9833 53.7846C64.0697 54.0021 63.1178 54.0021 62.2042 53.7846L61.7411 55.7302L61.2779 57.6759C62.8005 58.0384 64.387 58.0384 65.9097 57.6759L65.4465 55.7302ZM80.9195 52.0467L80.4563 50.101L64.9833 53.7846L65.4465 55.7302L65.9097 57.6759L81.3827 53.9923L80.9195 52.0467ZM87.0668 44.2642H85.0668C85.0668 47.0426 83.1592 49.4576 80.4563 50.101L80.9195 52.0467L81.3827 53.9923C85.8875 52.9199 89.0668 48.8949 89.0668 44.2642H87.0668ZM87.0668 25.0547H85.0668V44.2642H87.0668H89.0668V25.0547H87.0668ZM87.0388 24.3807L85.0457 24.547C85.0596 24.714 85.0668 24.8833 85.0668 25.0547H87.0668H89.0668C89.0668 24.7722 89.055 24.4919 89.0319 24.2145L87.0388 24.3807ZM87.0388 24.3807L86.3012 22.5217L62.8826 31.8136L63.6202 33.6726L64.3578 35.5317L87.7764 26.2398L87.0388 24.3807ZM63.6202 33.6726L62.8826 31.8136C63.1195 31.7196 63.3833 31.7196 63.6202 31.8136L62.8826 33.6726L62.145 35.5317C62.8556 35.8136 63.6471 35.8136 64.3578 35.5317L63.6202 33.6726ZM62.8826 33.6726L63.6202 31.8136L40.8687 22.7864L40.1311 24.6454L39.3935 26.5045L62.145 35.5317L62.8826 33.6726Z" fill="#69D364"/>
<path d="M62.8826 0.436646C63.1195 0.342655 63.3833 0.342655 63.6202 0.436646L103.16 16.1251C104.002 16.459 104.002 17.6501 103.16 17.9841L63.6202 33.6725C63.3833 33.7665 63.1195 33.7665 62.8826 33.6725L23.3427 17.9841C22.5011 17.6501 22.5011 16.459 23.3427 16.1251L62.8826 0.436646Z" fill="#1A1A1A" stroke="#69D364" stroke-width="4" stroke-linecap="round" stroke-linejoin="round"/>
<path d="M62.0777 15.6576L33.9617 25.2196C31.1239 26.1847 29.2155 28.8495 29.2155 31.8468V42.8995V58.9652" stroke="#69D364" stroke-width="4" stroke-linecap="round"/>
</g>
<path d="M29.1777 53.285V52.0823V88.1106V91.7794V103.874" stroke="#69D364" stroke-width="4" stroke-linecap="round"/>
<path d="M54.7669 68.7933L52.0632 72.331L39.2713 89.3528L35.3173 95.0944L29.3862 103.707" stroke="#69D364" stroke-width="4" stroke-linecap="round"/>
<path d="M86.4215 61.3994L86.4215 109.326" stroke="#69D364" stroke-width="4" stroke-linecap="round"/>
<path d="M85.9369 73.0487L86.4215 72.5265L71.9061 88.1703L70.4279 89.7634L65.555 95.0151" stroke="#69D364" stroke-width="4"/>
<path d="M55.333 68.2141L55.333 116.141" stroke="#69D364" stroke-width="4" stroke-linecap="round"/>
<path d="M55.333 116.141L57.7996 120.23L60.5255 125" stroke="#69D364" stroke-width="4" stroke-linecap="round"/>
<path d="M65.555 113.415L68.0216 117.504L70.7475 122.274" stroke="#69D364" stroke-width="4" stroke-linecap="round"/>
<path d="M65.555 113.716L65.9773 68.0573" stroke="#69D364" stroke-width="4" stroke-linecap="round"/>
<defs>
<clipPath id="clip0_2002_51">
<rect width="84.5028" height="55.8808" fill="white" transform="translate(21 0.290314)"/>
</clipPath>
</defs>
</svg>
