<svg width="128" height="128" viewBox="0 0 128 128" fill="none" xmlns="http://www.w3.org/2000/svg">
<g clip-path="url(#clip0_2002_52)">
<path d="M41.1311 24.3551L41.8687 22.4961C41.2693 22.2583 40.592 22.3241 40.0495 22.6728C39.5071 23.0215 39.1661 23.6104 39.1336 24.2545L41.1311 24.3551ZM47.2681 51.7564L47.7313 49.8107H47.7313L47.2681 51.7564ZM62.7411 55.4399L63.2042 53.4943H63.2042L62.7411 55.4399ZM66.4465 55.4399L65.9833 53.4943H65.9833L66.4465 55.4399ZM81.9195 51.7564L81.4563 49.8107V49.8107L81.9195 51.7564ZM88.0388 24.0904L90.0319 23.9242C89.9792 23.2931 89.6308 22.7242 89.0926 22.3906C88.5543 22.0569 87.8898 21.9979 87.3012 22.2314L88.0388 24.0904ZM64.6202 33.3823L65.3578 35.2413L65.3578 35.2413L64.6202 33.3823ZM63.8826 33.3823L63.145 35.2413L63.145 35.2413L63.8826 33.3823ZM41.1208 24.7644H43.1208C43.1208 24.6607 43.1234 24.5578 43.1286 24.4558L41.1311 24.3551L39.1336 24.2545C39.1251 24.4235 39.1208 24.5936 39.1208 24.7644H41.1208ZM41.1208 43.9739H43.1208V24.7644H41.1208H39.1208V43.9739H41.1208ZM47.2681 51.7564L47.7313 49.8107C45.0284 49.1673 43.1208 46.7523 43.1208 43.9739H41.1208H39.1208C39.1208 48.6046 42.3001 52.6295 46.8049 53.702L47.2681 51.7564ZM62.7411 55.4399L63.2042 53.4943L47.7313 49.8107L47.2681 51.7564L46.8049 53.702L62.2779 57.3855L62.7411 55.4399ZM66.4465 55.4399L65.9833 53.4943C65.0697 53.7118 64.1178 53.7118 63.2042 53.4943L62.7411 55.4399L62.2779 57.3855C63.8005 57.748 65.387 57.748 66.9097 57.3855L66.4465 55.4399ZM81.9195 51.7564L81.4563 49.8107L65.9833 53.4943L66.4465 55.4399L66.9097 57.3855L82.3827 53.702L81.9195 51.7564ZM88.0668 43.9738H86.0668C86.0668 46.7523 84.1592 49.1673 81.4563 49.8107L81.9195 51.7564L82.3827 53.702C86.8875 52.6295 90.0668 48.6046 90.0668 43.9738H88.0668ZM88.0668 24.7644H86.0668V43.9738H88.0668H90.0668V24.7644H88.0668ZM88.0388 24.0904L86.0457 24.2567C86.0596 24.4237 86.0668 24.593 86.0668 24.7644H88.0668H90.0668C90.0668 24.4819 90.055 24.2016 90.0319 23.9242L88.0388 24.0904ZM88.0388 24.0904L87.3012 22.2314L63.8826 31.5233L64.6202 33.3823L65.3578 35.2413L88.7764 25.9494L88.0388 24.0904ZM64.6202 33.3823L63.8826 31.5233C64.1195 31.4293 64.3833 31.4293 64.6202 31.5233L63.8826 33.3823L63.145 35.2413C63.8556 35.5233 64.6471 35.5233 65.3578 35.2413L64.6202 33.3823ZM63.8826 33.3823L64.6202 31.5233L41.8687 22.4961L41.1311 24.3551L40.3935 26.2141L63.145 35.2413L63.8826 33.3823Z" fill="#69D364"/>
<path d="M63.8826 0.146332C64.1195 0.0523413 64.3833 0.0523414 64.6202 0.146332L104.16 15.8347C105.002 16.1687 105.002 17.3598 104.16 17.6938L64.6202 33.3822C64.3833 33.4762 64.1195 33.4762 63.8826 33.3822L24.3427 17.6938C23.5011 17.3598 23.5011 16.1687 24.3427 15.8347L63.8826 0.146332Z" stroke="#69D364" stroke-width="4" stroke-linecap="round" stroke-linejoin="round"/>
<path d="M63.0777 15.3673L34.9617 24.9293C32.1239 25.8944 30.2155 28.5592 30.2155 31.5565V42.6092V58.6749" stroke="#69D364" stroke-width="4" stroke-linecap="round"/>
</g>
<path d="M30.1777 52.9947V51.792V87.8202V91.4891V103.584" stroke="#69D364" stroke-width="4" stroke-linecap="round"/>
<path d="M55.7669 68.503L53.0632 72.0407L40.2713 89.0625L36.3173 94.8041L30.3862 103.416" stroke="#69D364" stroke-width="4" stroke-linecap="round"/>
<path d="M87.4215 61.1091L87.4215 109.036" stroke="#69D364" stroke-width="4" stroke-linecap="round"/>
<path d="M86.9369 72.7584L87.4215 72.2362L72.9061 87.88L71.4279 89.4731L66.555 94.7248" stroke="#69D364" stroke-width="4"/>
<path d="M56.333 67.9238L56.333 115.851" stroke="#69D364" stroke-width="4" stroke-linecap="round"/>
<path d="M56.333 115.851L58.7996 119.939L61.5255 124.71" stroke="#69D364" stroke-width="4" stroke-linecap="round"/>
<path d="M66.555 113.125L69.0216 117.213L71.7475 121.984" stroke="#69D364" stroke-width="4" stroke-linecap="round"/>
<path d="M66.555 113.426L66.9773 67.767" stroke="#69D364" stroke-width="4" stroke-linecap="round"/>
<defs>
<clipPath id="clip0_2002_52">
<rect width="84.5028" height="55.8808" fill="white" transform="translate(22)"/>
</clipPath>
</defs>
</svg>
