<svg width="256" height="256" viewBox="0 0 256 256" fill="none" xmlns="http://www.w3.org/2000/svg">
<rect width="256" height="256" fill="#1E1E1E"/>
<rect width="256" height="256" fill="#1E1E1E"/>
<g filter="url(#filter0_i_10_55)">
<path d="M152.504 84.091C150.596 84.1354 148.421 84.1662 145.98 84.1779L142.104 84.1957L145.29 86.3985C148.127 88.3595 150.388 90.3632 152.095 92.4006L152.112 92.4196C153.862 94.4244 155.272 96.2019 156.35 97.7538C156.532 98.0407 156.706 98.3253 156.875 98.6063L157.339 100.145H157.758C158.318 101.172 158.794 102.155 159.185 103.096C159.37 103.885 159.705 105.85 160.188 109.069L160.192 109.088L160.196 109.108C160.779 112.291 161.391 116.141 162.032 120.658L162.035 120.67L162.037 120.683C162.779 125.188 163.513 130.054 164.239 135.28L164.76 139.087C165.268 142.858 165.734 146.519 166.158 150.069L166.16 150.095C166.813 154.709 167.304 158.825 167.634 162.444L167.638 162.478C168.068 166.078 168.306 168.498 168.362 169.779C168.34 171.216 168.148 172.841 167.773 174.659C167.474 176.106 166.86 177.827 165.903 179.833L165.898 179.841L165.894 179.85C165.049 181.69 163.813 183.654 162.166 185.743L160.342 188.057L163.27 187.708C166.492 187.325 169.311 187.04 171.727 186.854L171.753 186.853L171.777 186.849C174.188 186.563 176.189 186.376 177.783 186.286L177.791 186.285C179.613 186.17 181.192 186.035 182.524 185.878C182.731 185.869 182.939 185.858 183.148 185.849L201.262 246L130.192 190.288L59.1231 246L73.7455 197.441C74.5401 199.18 75.369 200.988 76.2323 202.866L76.5364 203.53L77.2663 203.575L91.9413 204.481L92.113 203.384C92.7782 199.149 93.3887 194.959 93.9438 190.815C94.5057 186.584 95.029 182.809 95.5134 179.491L95.5158 179.48C96.0535 175.542 96.468 171.842 96.7609 168.385C97.3485 163.85 97.9741 158.861 98.6382 153.419C99.3022 147.979 99.9501 142.74 100.58 137.704C101.313 132.665 101.952 128.126 102.498 124.089L102.497 124.087C103.149 119.983 103.746 117.112 104.276 115.42L104.278 115.411C104.658 114.166 105.33 112.811 106.326 111.345C107.226 110.042 108.398 108.548 109.852 106.859C111.254 105.229 113.125 103.511 115.481 101.709L118.317 99.5421L114.744 99.5219C110.87 99.5008 107.607 99.4797 104.956 99.46C104.374 99.4344 103.812 99.4137 103.271 99.3969L130.192 10L152.504 84.091ZM71.681 144.42C72.7267 148.101 73.6799 151.591 74.5363 154.887L76.695 162.485C76.879 161.044 77.081 159.432 77.2938 157.651C77.5921 155.129 77.9032 152.43 78.2312 149.556L86.2688 155.857L73.7455 197.441C71.4424 192.403 69.4277 187.952 67.7021 184.088L67.6902 184.061C65.4823 178.779 63.6543 174.446 62.2062 171.066L62.199 171.052C60.5894 167.144 59.2328 163.87 58.1296 161.23L58.1188 161.204L58.1081 161.175C57.215 158.699 55.9965 155.827 54.4477 152.558L54.4465 152.556C53.1528 149.806 51.5043 146.411 49.4992 142.371L49.4944 142.362L49.4885 142.351C48.0267 139.256 46.3202 135.806 44.3706 131.999C43.7248 137.285 43.2323 141.917 42.8953 145.898L42.6865 149.389C42.5002 152.717 42.3808 155.591 42.3275 158.012L42.3264 159.39C42.3376 162.528 42.4261 165.197 42.5899 167.4C42.8863 169.819 43.3578 172.563 44.0045 175.635L44.9717 180.032C45.3207 181.606 45.6972 183.297 46.1024 185.104L46.8264 187.915C47.5916 190.815 48.4782 193.986 49.4861 197.427L50.0145 199.231L48.1503 198.979C42.1969 198.171 37.7724 197.646 34.8637 197.401L30.2992 197.016C28.9533 196.903 27.0712 196.89 24.6315 196.988L24.616 196.989H24.6017C22.5655 197.02 19.7586 197.088 16.1789 197.194C12.7073 197.308 8.35824 197.501 3.13082 197.774L0 197.938L2.19456 195.703C4.84534 193.004 6.9526 190.534 8.52896 188.294L8.5385 188.282C10.2611 185.896 11.5806 183.905 12.509 182.301L12.5173 182.289L12.5245 182.276C13.6714 180.4 14.4808 178.779 14.9791 177.407C15.388 175.909 15.8158 173.242 16.2469 169.341L16.4091 167.81C16.7827 164.18 17.1128 160.152 17.3978 155.728L17.4002 155.704C17.8355 150.557 18.1917 145.146 18.4677 139.473L18.4665 139.461L18.4677 139.451C18.8452 133.781 19.1379 128.514 19.3455 123.648C19.5272 119.391 19.6249 115.679 19.6377 112.511V111.151C19.724 107.769 19.7483 105.697 19.7212 104.88C19.652 104.421 19.541 103.938 19.3896 103.43L71.681 144.42ZM238.24 105.588C238.336 107.42 238.441 109.323 238.554 111.297C238.941 116.248 239.35 121.4 239.784 126.752L239.787 126.753C240.324 132.113 240.824 137.171 241.289 141.926C241.853 146.649 242.407 150.86 242.951 154.561L243.15 155.864C243.609 158.776 244.039 160.807 244.431 162.005L244.437 162.024L244.442 162.043C244.876 163.53 245.465 165.045 246.212 166.587L246.542 167.25L246.55 167.264C247.333 168.85 248.335 170.574 249.562 172.435C250.732 174.129 252.183 175.704 253.924 177.159L255.887 178.799L213.757 187.024L215.997 184.375C217.3 182.835 218.292 181.405 218.994 180.084C219.714 178.605 220.251 177.367 220.614 176.362C220.951 175.3 221.15 174.32 221.227 173.42C221.182 172.196 221.083 170.095 220.928 167.109V167.093C220.83 164.569 220.605 160.98 220.254 156.321C219.922 151.923 219.427 146.171 218.772 139.065C217.653 139.218 216.377 139.417 214.944 139.66L214.914 139.665L214.883 139.668C212.984 139.894 211.195 140.157 209.515 140.458L209.504 140.46C207.482 140.804 205.356 141.108 203.125 141.373C200.931 141.736 198.637 142.11 196.244 142.496C194.246 142.938 191.999 143.411 189.505 143.912L189.46 143.919C189.41 143.927 189.361 143.935 189.312 143.943L238.24 105.588ZM183.649 148.382C183.904 150.808 184.214 153.018 184.579 155.012L184.795 156.142C185.23 158.357 185.689 160.299 186.17 161.973L186.412 162.789L186.422 162.82C187.125 165.344 187.879 167.486 188.678 169.256C189.289 170.55 189.929 171.842 190.596 173.129L191.272 174.417L191.28 174.43C192.062 175.94 192.958 177.542 193.967 179.235C195.068 180.904 196.14 182.367 197.18 183.625L198.801 185.585L196.254 185.619C194.325 185.646 192.555 185.705 190.947 185.796L190.909 185.797H190.871C189.242 185.787 187.805 185.754 186.56 185.697C185.389 185.752 184.251 185.802 183.148 185.849L174.116 155.857L183.649 148.382ZM72.201 100.145C74.1927 103.449 75.7235 106.387 76.7976 108.965L76.8024 108.974L76.8048 108.983C77.9899 111.707 78.8963 114.037 79.5289 115.978C80.2304 118.21 80.6463 120.135 80.7979 121.761C80.8757 123.106 80.8051 125.17 80.5665 127.992C80.328 130.812 80.0133 133.934 79.6219 137.359L79.6183 137.394C79.3379 140.711 78.9446 144.173 78.4364 147.78L78.4316 147.813C78.3649 148.401 78.2968 148.982 78.2312 149.556L71.681 144.42C71.5021 143.791 71.3227 143.155 71.1383 142.514C69.8739 138.12 68.6801 134.088 67.5578 130.418L67.553 130.403L67.5483 130.39L66.8052 128.126C66.0481 125.795 65.2498 123.258 64.4115 120.517L64.4067 120.502C63.6776 118.215 62.8073 115.573 61.7947 112.577L60.7344 109.463C59.8033 106.55 58.794 103.444 57.7085 100.145H72.201ZM183.649 148.382C183.535 147.304 183.432 146.183 183.341 145.019C185.327 144.626 187.318 144.266 189.312 143.943L183.649 148.382ZM214.859 100.145C215.238 102.199 215.56 104.68 215.822 107.597L215.826 107.633C216.188 110.666 216.402 114.298 216.471 118.535C210.868 119.663 206.661 120.446 203.836 120.877L203.823 120.879L203.809 120.882C202.02 121.196 200.426 121.487 199.029 121.755L194.059 122.347C192.327 122.553 190.204 122.855 187.696 123.255C185.517 123.514 182.989 123.775 180.112 124.04C180.103 117.711 180.098 112.54 180.098 108.526C180.178 105.111 180.299 102.32 180.457 100.145H214.859ZM245.186 100.145L238.24 105.588C238.14 103.697 238.049 101.883 237.968 100.145H245.186ZM18.123 100.404L18.3854 100.91C18.8264 101.809 19.157 102.649 19.3896 103.43L15.1997 100.145H17.9787C18.0266 100.232 18.077 100.318 18.123 100.404ZM241.357 75.5825C240.739 77.039 240.226 78.5332 239.815 80.0642C239.399 81.6123 239.065 82.9952 238.812 84.2136C238.69 84.9688 238.581 85.6441 238.459 86.3997L238.194 88.0428C238.169 88.1969 238.134 88.406 238.108 88.5655C237.868 90.6615 237.781 93.7187 237.858 97.7669C237.892 98.5429 237.93 99.3354 237.968 100.145H214.859C214.795 99.7937 214.73 99.4549 214.662 99.129L214.66 99.1171C214.156 96.5747 213.604 94.4649 213.014 92.7756C212.616 91.8672 212.048 90.7664 211.298 89.4692L211.292 89.4585C210.667 88.352 209.807 87.0064 208.705 85.4174L208.682 85.3828L208.66 85.3471C207.66 83.6704 206.313 81.6653 204.61 79.3295L203.137 77.3102L205.64 77.3947C208.288 77.4848 210.617 77.5095 212.629 77.4721C214.747 77.3219 216.522 77.2135 217.952 77.1459C219.566 77.0553 220.91 76.9454 221.988 76.8173L222.862 76.7041C223.803 76.5735 224.943 76.3909 226.286 76.1552L227.507 75.9409C228.784 75.7307 230.258 75.5274 231.923 75.3289C234.121 74.9656 236.818 74.4923 240.013 73.9085L242.241 73.5013L241.357 75.5825ZM186.768 80.7702C185.567 82.4058 184.62 83.9447 183.917 85.3864L183.909 85.4043L183.899 85.4233C183.171 86.7971 182.639 88.0241 182.294 89.1072L182.281 89.1489C181.835 90.3862 181.477 91.5068 181.205 92.5113C180.974 93.8005 180.767 95.7992 180.589 98.5396L180.587 98.5789C180.541 99.0595 180.498 99.5814 180.457 100.145H157.758C157.484 99.6423 157.19 99.1293 156.875 98.6063L152.504 84.091C153.38 84.0705 154.2 84.0488 154.964 84.0219C157.388 83.8355 159.322 83.7091 160.761 83.6409C162.481 83.538 163.826 83.4284 164.802 83.3123C166.495 83.1109 168.437 82.8281 170.632 82.4657C172.524 82.1392 174.715 81.7262 177.206 81.2263C179.75 80.6211 182.483 79.8432 185.403 78.8902L189.012 77.7126L186.768 80.7702ZM11.9663 88.4285C16.4465 89.6191 20.1206 90.4827 22.9952 91.0265C25.9119 91.5784 28.2779 92.0339 30.0905 92.391C32.1674 92.7659 33.7471 92.9423 34.8625 92.9435H34.9126L45.5991 93.8436C48.1587 93.9575 51.3129 94.1722 55.0572 94.4878L55.8587 94.5556L56.1127 95.3189C56.6623 96.9708 57.1936 98.5796 57.7085 100.145H17.9787C17.3611 99.0125 16.586 97.7549 15.6434 96.3738L15.6243 96.3428C14.5102 94.6024 12.9016 92.641 10.776 90.4562L7.70004 87.2938L11.9663 88.4285ZM72.9082 97.5216C77.0526 97.9727 80.4351 98.309 83.0581 98.5301L89.4473 99.0682C91.2584 99.2209 92.6356 99.2867 93.5979 99.2718L93.6587 99.2706L93.7196 99.2754C94.9774 99.3814 96.5579 99.4169 98.4701 99.3778C99.8393 99.3328 101.441 99.34 103.271 99.3969L103.046 100.145H72.201C72.0474 99.8897 71.8937 99.6311 71.7346 99.3719L70.4346 97.2525L72.9082 97.5216Z" fill="#DDFF00" fill-opacity="0.81"/>
<path d="M238.353 106.097C238.45 107.928 238.554 109.831 238.668 111.806C239.054 116.757 239.463 121.908 239.897 127.261L239.9 127.262C240.437 132.622 240.938 137.68 241.403 142.434C241.966 147.157 242.52 151.369 243.064 155.07L243.263 156.372C243.722 159.285 244.152 161.315 244.544 162.514L244.55 162.533L244.555 162.552C244.989 164.038 245.578 165.553 246.325 167.095L246.655 167.758L246.664 167.773C247.446 169.359 248.448 171.082 249.675 172.944C250.845 174.637 252.297 176.212 254.037 177.667L256 179.308L213.87 187.533L216.11 184.884C217.413 183.343 218.406 181.913 219.108 180.592C219.827 179.113 220.365 177.875 220.727 176.87C221.064 175.808 221.264 174.829 221.34 173.928C221.296 172.705 221.197 170.603 221.041 167.618V167.601C220.943 165.077 220.718 161.489 220.367 156.829C220.035 152.431 219.54 146.679 218.886 139.573C217.766 139.727 216.491 139.925 215.057 140.169L215.027 140.173L214.996 140.177C213.097 140.403 211.308 140.666 209.628 140.966L209.617 140.969C207.596 141.312 205.469 141.616 203.239 141.882C201.044 142.244 198.75 142.619 196.357 143.005C194.359 143.447 192.112 143.92 189.618 144.42L189.573 144.427C189.524 144.435 189.474 144.443 189.425 144.451L238.353 106.097ZM183.762 148.89C184.017 151.317 184.327 153.527 184.692 155.521L184.908 156.651C185.343 158.865 185.802 160.807 186.283 162.481L186.526 163.297L186.535 163.328C187.238 165.852 187.992 167.995 188.792 169.765C189.402 171.059 190.042 172.35 190.71 173.638L191.386 174.925L191.393 174.938C192.176 176.449 193.071 178.05 194.08 179.744C195.182 181.412 196.253 182.875 197.293 184.133L198.914 186.093L196.368 186.128C194.438 186.154 192.669 186.214 191.06 186.304L191.022 186.305H190.984C189.356 186.296 187.918 186.262 186.673 186.205C185.502 186.26 184.365 186.31 183.261 186.358L174.229 156.365L183.762 148.89ZM183.762 148.89C183.649 147.812 183.546 146.691 183.454 145.528C185.44 145.135 187.431 144.775 189.425 144.451L183.762 148.89ZM214.972 100.653C215.351 102.707 215.674 105.189 215.935 108.105L215.94 108.141C216.302 111.175 216.516 114.807 216.584 119.044C210.982 120.172 206.774 120.954 203.95 121.386L203.936 121.387L203.922 121.391C202.133 121.705 200.54 121.996 199.142 122.263L194.172 122.855C192.44 123.061 190.318 123.363 187.809 123.764C185.63 124.023 183.103 124.283 180.226 124.548C180.217 118.219 180.212 113.048 180.211 109.034C180.291 105.619 180.412 102.828 180.57 100.653H214.972ZM245.299 100.653L238.353 106.097C238.253 104.206 238.163 102.391 238.081 100.653H245.299ZM241.471 76.091C240.853 77.5474 240.34 79.0416 239.928 80.5726C239.513 82.1207 239.178 83.5036 238.925 84.722C238.804 85.4772 238.694 86.1525 238.572 86.9081L238.308 88.5512C238.283 88.7053 238.247 88.9144 238.222 89.0739C237.981 91.1699 237.895 94.2271 237.971 98.2753C238.005 99.0513 238.043 99.8438 238.081 100.653H214.972C214.908 100.302 214.844 99.9633 214.776 99.6374L214.773 99.6255C214.269 97.0831 213.718 94.9733 213.127 93.284C212.729 92.3756 212.161 91.2748 211.411 89.9776L211.405 89.9669C210.78 88.8604 209.92 87.5148 208.818 85.9258L208.796 85.8912L208.773 85.8555C207.773 84.1788 206.426 82.1738 204.724 79.8379L203.251 77.8186L205.753 77.9031C208.401 77.9932 210.73 78.0179 212.742 77.9805C214.86 77.8303 216.635 77.722 218.065 77.6543C219.679 77.5637 221.023 77.4539 222.101 77.3257L222.975 77.2125C223.916 77.0819 225.057 76.8993 226.4 76.6637L227.62 76.4493C228.898 76.2391 230.371 76.0358 232.036 75.8373C234.235 75.474 236.931 75.0007 240.126 74.4169L242.354 74.0097L241.471 76.091ZM186.881 81.2786C185.681 82.9142 184.733 84.4531 184.03 85.8948L184.022 85.9127L184.013 85.9317C183.284 87.3055 182.752 88.5325 182.407 89.6156L182.394 89.6573C181.949 90.8946 181.59 92.0152 181.318 93.0197C181.087 94.3089 180.88 96.3076 180.703 99.048L180.7 99.0873C180.654 99.5679 180.611 100.09 180.57 100.653H157.871C157.597 100.151 157.304 99.6377 156.988 99.1147L152.617 84.5994C153.494 84.579 154.314 84.5572 155.078 84.5303C157.501 84.3439 159.436 84.2175 160.874 84.1493C162.594 84.0465 163.939 83.9368 164.915 83.8207C166.608 83.6193 168.551 83.3366 170.745 82.9741C172.637 82.6476 174.828 82.2346 177.319 81.7347C179.864 81.1295 182.596 80.3516 185.517 79.3986L189.126 78.221L186.881 81.2786Z" fill="#1AC531"/>
<path d="M72.2248 144.548C73.2706 148.229 74.2237 151.718 75.0801 155.015L77.2389 162.612C77.4229 161.171 77.6248 159.56 77.8376 157.778C78.136 155.256 78.447 152.557 78.7751 149.683L86.8127 155.984L74.2894 197.569C71.9863 192.531 69.9716 188.079 68.246 184.216L68.2341 184.188C66.0262 178.906 64.1981 174.574 62.7501 171.193L62.7429 171.179C61.1332 167.272 59.7767 163.997 58.6734 161.357L58.6627 161.331L58.652 161.303C57.7589 158.826 56.5403 155.954 54.9916 152.686L54.9904 152.683C53.6967 149.933 52.0481 146.538 50.0431 142.499L50.0383 142.489L50.0324 142.478C48.5706 139.383 46.864 135.933 44.9145 132.127C44.2687 137.412 43.7762 142.045 43.4391 146.025L43.2304 149.516C43.0441 152.845 42.9246 155.718 42.8714 158.139L42.8702 159.518C42.8815 162.656 42.97 165.324 43.1338 167.527C43.4302 169.947 43.9017 172.691 44.5483 175.762L45.5156 180.159C45.8646 181.734 46.2411 183.425 46.6463 185.231L47.3703 188.042C48.1355 190.943 49.022 194.113 50.03 197.555L50.5583 199.358L48.6941 199.106C42.7408 198.299 38.3163 197.774 35.4075 197.528L30.8431 197.144C29.4971 197.03 27.615 197.017 25.1754 197.115L25.1599 197.116H25.1456C23.1093 197.148 20.3025 197.216 16.7228 197.321C13.2512 197.435 8.90211 197.628 3.67469 197.901L0.543869 198.065L2.73843 195.83C5.38921 193.132 7.49647 190.662 9.07283 188.421L9.08237 188.409C10.805 186.024 12.1245 184.032 13.0529 182.428L13.0612 182.417L13.0684 182.403C14.2152 180.527 15.0247 178.906 15.5229 177.535C15.9318 176.036 16.3597 173.37 16.7908 169.468L16.953 167.937C17.3266 164.307 17.6567 160.28 17.9417 155.855L17.9441 155.832C18.3794 150.684 18.7356 145.274 19.0116 139.601L19.0104 139.589L19.0116 139.578C19.389 133.908 19.6817 128.641 19.8894 123.776C20.0711 119.519 20.1688 115.806 20.1816 112.638V111.278C20.2679 107.897 20.2922 105.825 20.2651 105.007C20.1958 104.548 20.0849 104.065 19.9335 103.557L72.2248 144.548ZM72.7448 100.272C74.7366 103.577 76.2674 106.514 77.3415 109.092L77.3463 109.102L77.3486 109.11C78.5338 111.834 79.4402 114.165 80.0728 116.105C80.7743 118.337 81.1901 120.262 81.3418 121.888C81.4195 123.233 81.349 125.298 81.1104 128.119C80.8719 130.94 80.5572 134.062 80.1658 137.486L80.1622 137.522C79.8817 140.838 79.4884 144.301 78.9802 147.908L78.9755 147.94C78.9087 148.528 78.8406 149.109 78.7751 149.683L72.2248 144.548C72.046 143.918 71.8666 143.282 71.6821 142.641C70.4177 138.248 69.224 134.216 68.1017 130.546L68.0969 130.53L68.0921 130.517L67.3491 128.254C66.592 125.923 65.7937 123.386 64.9553 120.644L64.9506 120.63C64.2215 118.343 63.3512 115.701 62.3386 112.705L61.2783 109.59C60.3472 106.677 59.3379 103.571 58.2524 100.272H72.7448ZM18.6669 100.532L18.9293 101.038C19.3703 101.936 19.7009 102.776 19.9335 103.557L15.7436 100.272H18.5225C18.5705 100.36 18.6209 100.445 18.6669 100.532ZM12.5102 88.5559C16.9904 89.7465 20.6644 90.6101 23.539 91.1539C26.4557 91.7058 28.8218 92.1613 30.6344 92.5184C32.7112 92.8933 34.291 93.0697 35.4063 93.0709H35.4564L46.143 93.971C48.7025 94.0849 51.8567 94.2996 55.601 94.6152L56.4025 94.6831L56.6566 95.4463C57.2062 97.0982 57.7375 98.707 58.2524 100.272H18.5225C17.905 99.1399 17.1299 97.8823 16.1873 96.5012L16.1682 96.4702C15.054 94.7298 13.4455 92.7684 11.3199 90.5836L8.24391 87.4212L12.5102 88.5559ZM73.4521 97.649C77.5965 98.1001 80.979 98.4364 83.6019 98.6575L89.9912 99.1956C91.8022 99.3483 93.1794 99.4141 94.1418 99.3992L94.2026 99.398L94.2634 99.4028C95.5212 99.5088 97.1017 99.5443 99.0139 99.5052C100.383 99.4602 101.985 99.4674 103.815 99.5243L103.59 100.272H72.7448C72.5912 100.017 72.4376 99.7585 72.2785 99.4993L70.9785 97.3799L73.4521 97.649Z" fill="#1AC531"/>
<path d="M111.997 209.266C107.411 209.266 103.034 209.058 98.865 208.642C94.6962 208.226 89.381 206.978 82.9194 204.897C81.8772 204.064 80.6266 202.192 79.1675 199.278C77.9169 196.157 77.2916 193.764 77.2916 192.1C77.2916 191.267 77.6042 190.851 78.2296 190.851C79.2718 190.851 82.0857 191.475 86.6713 192.724C91.257 193.764 97.4059 194.284 105.118 194.284C115.332 194.284 123.773 192.308 130.443 188.354C137.113 184.192 140.448 178.366 140.448 170.875C140.448 165.881 138.677 161.095 135.133 156.518C131.798 151.94 127.629 147.466 122.627 143.096C117.624 138.518 112.518 133.837 107.307 129.051C102.304 124.265 98.0312 119.167 94.4878 113.757C91.1527 108.138 89.4852 102 89.4852 95.3414C89.4852 92.2201 90.4232 88.3706 92.2992 83.7928C94.1751 79.215 97.927 74.5331 103.555 69.7472C109.183 64.9614 117.624 60.4876 128.88 56.3259C140.136 52.1643 155.039 48.835 173.59 46.338L180.469 52.2683L170.464 80.0473C166.503 77.3422 161.918 75.1574 156.707 73.4927C151.704 71.62 146.806 70.6836 142.012 70.6836C135.967 70.6836 130.548 72.0361 125.754 74.7412C121.168 77.2382 118.875 81.816 118.875 88.4747C118.875 93.2605 120.751 98.0464 124.503 102.832C128.255 107.41 132.84 112.092 138.26 116.878C143.888 121.456 149.411 126.346 154.831 131.548C160.25 136.542 164.836 142.056 168.588 148.09C172.34 153.917 174.216 160.263 174.216 167.13C174.216 171.083 173.486 175.453 172.027 180.239C170.568 185.025 167.65 189.603 163.272 193.972C159.104 198.342 152.851 201.984 144.513 204.897C136.384 207.81 125.545 209.266 111.997 209.266Z" fill="#1AC531"/>
</g>
<defs>
<filter id="filter0_i_10_55" x="0" y="10" width="256" height="240" filterUnits="userSpaceOnUse" color-interpolation-filters="sRGB">
<feFlood flood-opacity="0" result="BackgroundImageFix"/>
<feBlend mode="normal" in="SourceGraphic" in2="BackgroundImageFix" result="shape"/>
<feColorMatrix in="SourceAlpha" type="matrix" values="0 0 0 0 0 0 0 0 0 0 0 0 0 0 0 0 0 0 127 0" result="hardAlpha"/>
<feOffset dy="4"/>
<feGaussianBlur stdDeviation="2"/>
<feComposite in2="hardAlpha" operator="arithmetic" k2="-1" k3="1"/>
<feColorMatrix type="matrix" values="0 0 0 0 0 0 0 0 0 0 0 0 0 0 0 0 0 0 0.25 0"/>
<feBlend mode="normal" in2="shape" result="effect1_innerShadow_10_55"/>
</filter>
</defs>
</svg>
